<mxfile host="app.diagrams.net" modified="2024-07-10T14:38:19.537Z" agent="Mozilla/5.0 (Windows NT 10.0; Win64; x64) AppleWebKit/537.36 (KHTML, like Gecko) Chrome/126.0.0.0 Safari/537.36" etag="xdbEtmToecuAVdC124H9" version="24.6.4" type="device">
  <diagram name="Page-1" id="x7caVF2TCQcUlIry8kkF">
    <mxGraphModel dx="941" dy="679" grid="1" gridSize="10" guides="1" tooltips="1" connect="1" arrows="1" fold="1" page="1" pageScale="1" pageWidth="850" pageHeight="1100" math="0" shadow="0">
      <root>
        <mxCell id="0" />
        <mxCell id="1" parent="0" />
        <mxCell id="D8l49maD2ccC1QcqHH9q-41" value="" style="rounded=0;whiteSpace=wrap;html=1;fontFamily=Helvetica;fontSize=11;fontColor=default;labelBackgroundColor=default;strokeColor=none;" vertex="1" parent="1">
          <mxGeometry x="20" y="20" width="520" height="500" as="geometry" />
        </mxCell>
        <mxCell id="D8l49maD2ccC1QcqHH9q-40" value="App layer&lt;div&gt;&lt;span style=&quot;color: rgb(128, 128, 128);&quot;&gt;&lt;br&gt;&lt;/span&gt;&lt;/div&gt;&lt;div&gt;&lt;span style=&quot;color: rgb(128, 128, 128);&quot;&gt;- lib/src/ui&lt;/span&gt;&lt;br&gt;&lt;/div&gt;" style="html=1;whiteSpace=wrap;fontFamily=Helvetica;fontSize=11;fontColor=default;labelBackgroundColor=default;dashed=1;strokeColor=#808080;align=left;verticalAlign=top;spacingLeft=7;fillColor=none;" vertex="1" parent="1">
          <mxGeometry x="40" y="40" width="480" height="80" as="geometry" />
        </mxCell>
        <mxCell id="D8l49maD2ccC1QcqHH9q-39" value="Representation layer&lt;div&gt;&lt;br&gt;&lt;/div&gt;&lt;div&gt;&lt;font color=&quot;#808080&quot;&gt;-&amp;nbsp;package:flutter/material.dart&lt;/font&gt;&lt;/div&gt;&lt;div&gt;&lt;span style=&quot;color: rgb(128, 128, 128);&quot;&gt;- lib/src/ui/components&lt;/span&gt;&lt;br&gt;&lt;/div&gt;" style="html=1;whiteSpace=wrap;fontFamily=Helvetica;fontSize=11;fontColor=default;labelBackgroundColor=default;dashed=1;strokeColor=#808080;align=left;verticalAlign=top;spacingLeft=7;fillColor=none;" vertex="1" parent="1">
          <mxGeometry x="40" y="400" width="480" height="100" as="geometry" />
        </mxCell>
        <mxCell id="D8l49maD2ccC1QcqHH9q-38" value="Content layer&lt;div&gt;&lt;br&gt;&lt;/div&gt;&lt;div&gt;&lt;span style=&quot;color: rgb(128, 128, 128);&quot;&gt;- lib/src/ui&lt;/span&gt;&lt;br&gt;&lt;/div&gt;&lt;div&gt;&lt;span style=&quot;color: rgb(128, 128, 128);&quot;&gt;- lib/src/ui/fragments&lt;/span&gt;&lt;span style=&quot;color: rgb(128, 128, 128);&quot;&gt;&lt;br&gt;&lt;/span&gt;&lt;/div&gt;" style="html=1;whiteSpace=wrap;fontFamily=Helvetica;fontSize=11;fontColor=default;labelBackgroundColor=default;dashed=1;strokeColor=#808080;align=left;verticalAlign=top;spacingLeft=7;fillColor=none;" vertex="1" parent="1">
          <mxGeometry x="40" y="140" width="480" height="240" as="geometry" />
        </mxCell>
        <mxCell id="D8l49maD2ccC1QcqHH9q-15" style="edgeStyle=orthogonalEdgeStyle;rounded=0;orthogonalLoop=1;jettySize=auto;html=1;endArrow=blockThin;endFill=1;" edge="1" parent="1" source="D8l49maD2ccC1QcqHH9q-16" target="D8l49maD2ccC1QcqHH9q-18">
          <mxGeometry relative="1" as="geometry" />
        </mxCell>
        <mxCell id="D8l49maD2ccC1QcqHH9q-16" value="App root" style="html=1;whiteSpace=wrap;fillColor=#e1d5e7;strokeColor=#9673a6;" vertex="1" parent="1">
          <mxGeometry x="300" y="60" width="120" height="40" as="geometry" />
        </mxCell>
        <mxCell id="D8l49maD2ccC1QcqHH9q-17" style="edgeStyle=orthogonalEdgeStyle;shape=connector;rounded=0;orthogonalLoop=1;jettySize=auto;html=1;strokeColor=default;align=center;verticalAlign=middle;fontFamily=Helvetica;fontSize=11;fontColor=default;labelBackgroundColor=default;endArrow=blockThin;endFill=1;" edge="1" parent="1" source="D8l49maD2ccC1QcqHH9q-18" target="D8l49maD2ccC1QcqHH9q-22">
          <mxGeometry relative="1" as="geometry" />
        </mxCell>
        <mxCell id="D8l49maD2ccC1QcqHH9q-18" value="Screen" style="html=1;whiteSpace=wrap;fillColor=#f8cecc;strokeColor=#b85450;" vertex="1" parent="1">
          <mxGeometry x="300" y="160" width="120" height="40" as="geometry" />
        </mxCell>
        <mxCell id="D8l49maD2ccC1QcqHH9q-30" style="edgeStyle=orthogonalEdgeStyle;shape=connector;rounded=0;orthogonalLoop=1;jettySize=auto;html=1;strokeColor=default;align=center;verticalAlign=middle;fontFamily=Helvetica;fontSize=11;fontColor=default;labelBackgroundColor=default;endArrow=blockThin;endFill=1;" edge="1" parent="1" source="D8l49maD2ccC1QcqHH9q-22" target="D8l49maD2ccC1QcqHH9q-25">
          <mxGeometry relative="1" as="geometry" />
        </mxCell>
        <mxCell id="D8l49maD2ccC1QcqHH9q-31" style="edgeStyle=orthogonalEdgeStyle;shape=connector;rounded=0;orthogonalLoop=1;jettySize=auto;html=1;entryX=0.75;entryY=0;entryDx=0;entryDy=0;strokeColor=default;align=center;verticalAlign=middle;fontFamily=Helvetica;fontSize=11;fontColor=default;labelBackgroundColor=default;endArrow=blockThin;endFill=1;" edge="1" parent="1" source="D8l49maD2ccC1QcqHH9q-22" target="D8l49maD2ccC1QcqHH9q-27">
          <mxGeometry relative="1" as="geometry">
            <Array as="points">
              <mxPoint x="390" y="300" />
              <mxPoint x="470" y="300" />
            </Array>
          </mxGeometry>
        </mxCell>
        <mxCell id="D8l49maD2ccC1QcqHH9q-32" style="edgeStyle=orthogonalEdgeStyle;shape=connector;rounded=0;orthogonalLoop=1;jettySize=auto;html=1;entryX=0.25;entryY=0;entryDx=0;entryDy=0;strokeColor=default;align=center;verticalAlign=middle;fontFamily=Helvetica;fontSize=11;fontColor=default;labelBackgroundColor=default;endArrow=blockThin;endFill=1;" edge="1" parent="1" source="D8l49maD2ccC1QcqHH9q-22" target="D8l49maD2ccC1QcqHH9q-26">
          <mxGeometry relative="1" as="geometry">
            <Array as="points">
              <mxPoint x="330" y="300" />
              <mxPoint x="250" y="300" />
            </Array>
          </mxGeometry>
        </mxCell>
        <mxCell id="D8l49maD2ccC1QcqHH9q-22" value="Page" style="html=1;whiteSpace=wrap;fillColor=#ffe6cc;strokeColor=#d79b00;" vertex="1" parent="1">
          <mxGeometry x="300" y="240" width="120" height="40" as="geometry" />
        </mxCell>
        <mxCell id="D8l49maD2ccC1QcqHH9q-28" style="edgeStyle=orthogonalEdgeStyle;shape=connector;rounded=0;orthogonalLoop=1;jettySize=auto;html=1;entryX=0.75;entryY=0;entryDx=0;entryDy=0;strokeColor=default;align=center;verticalAlign=middle;fontFamily=Helvetica;fontSize=11;fontColor=default;labelBackgroundColor=default;endArrow=blockThin;endFill=1;" edge="1" parent="1" source="D8l49maD2ccC1QcqHH9q-25" target="D8l49maD2ccC1QcqHH9q-26">
          <mxGeometry relative="1" as="geometry">
            <Array as="points">
              <mxPoint x="360" y="420" />
              <mxPoint x="310" y="420" />
            </Array>
          </mxGeometry>
        </mxCell>
        <mxCell id="D8l49maD2ccC1QcqHH9q-29" style="edgeStyle=orthogonalEdgeStyle;shape=connector;rounded=0;orthogonalLoop=1;jettySize=auto;html=1;entryX=0.25;entryY=0;entryDx=0;entryDy=0;strokeColor=default;align=center;verticalAlign=middle;fontFamily=Helvetica;fontSize=11;fontColor=default;labelBackgroundColor=default;endArrow=blockThin;endFill=1;" edge="1" parent="1" source="D8l49maD2ccC1QcqHH9q-25" target="D8l49maD2ccC1QcqHH9q-27">
          <mxGeometry relative="1" as="geometry">
            <Array as="points">
              <mxPoint x="360" y="420" />
              <mxPoint x="410" y="420" />
            </Array>
          </mxGeometry>
        </mxCell>
        <mxCell id="D8l49maD2ccC1QcqHH9q-25" value="Fragment" style="html=1;whiteSpace=wrap;fillColor=#fff2cc;strokeColor=#d6b656;" vertex="1" parent="1">
          <mxGeometry x="300" y="320" width="120" height="40" as="geometry" />
        </mxCell>
        <mxCell id="D8l49maD2ccC1QcqHH9q-26" value="roc component" style="html=1;whiteSpace=wrap;fillColor=#f5f5f5;strokeColor=#666666;fontColor=#333333;" vertex="1" parent="1">
          <mxGeometry x="220" y="440" width="120" height="40" as="geometry" />
        </mxCell>
        <mxCell id="D8l49maD2ccC1QcqHH9q-27" value="Flutter component" style="html=1;whiteSpace=wrap;fillColor=#f5f5f5;strokeColor=#666666;fontColor=#333333;" vertex="1" parent="1">
          <mxGeometry x="380" y="440" width="120" height="40" as="geometry" />
        </mxCell>
      </root>
    </mxGraphModel>
  </diagram>
</mxfile>
